<svg
  xmlns="http://www.w3.org/2000/svg"
  width="500"
  height="500"
  fill="none"
>
  <g fill="url(#paint0_linear_1805_24383)" stroke="null">
    <path
      fill-rule="evenodd"
      clip-rule="evenodd"
      fill="url(#paint0_linear_1805_24383)"
      d="m294.455 213.534-34.51-20.095a18.43 18.43 0 0 0-18.578 0l-34.51 20.095a18.076 18.076 0 0 0-9.283 16.08v40.212c0 6.695 3.307 12.728 9.283 16.08l34.51 20.106a18.43 18.43 0 0 0 18.59 0l34.498-20.106c5.964-3.352 9.283-9.385 9.283-16.08v-40.212c0-6.694-3.98-12.727-9.283-16.08z"
    ></path><path
      d="M472.957 27.254c0-20.094-21.897-33.506-39.152-22.774L354.18 50.713 283.849 9.84a66.59 66.59 0 0 0-67.024 0L60.219 100.3a67.366 67.366 0 0 0-33.175 58.288v182.265a67.366 67.366 0 0 0 33.187 58.3l155.932 91.12a66.59 66.59 0 0 0 67.013 0l155.944-91.12a67.366 67.366 0 0 0 33.175-58.3V27.266h.662v-.012zm-84.28 279.431c0 14.735-7.948 28.808-20.561 36.175l-96.88 56.292a41.033 41.033 0 0 1-41.136 0l-96.881-56.292c-12.613-7.367-20.574-21.44-20.574-36.175V193.44c0-14.745 7.96-28.819 20.574-36.186l96.22-56.292a41.033 41.033 0 0 1 41.135 0l96.88 56.292c12.602 7.367 20.574 21.44 20.574 36.186v113.246h.661-.011z"
    ></path>
  </g>
  <defs>
    <linearGradient
      id="paint0_linear_1805_24383"
      x1="247.358"
      y1="0"
      x2="247.358"
      y2="622.479"
      gradientUnits="userSpaceOnUse"
    >
      <stop stop-opacity="0.2"></stop>
      <stop offset="1" stop-opacity="0.1"></stop>
    </linearGradient>
  </defs>
</svg>